# xmcd CD database file
#
# Track frame offsets:
#	150
#	16560
#	30672
#	42705
#	60007
#	81757
#	97300
#	114007
#	135355
#	154582
#
# Disc length: 2443 seconds
#
# Revision: 3
# Processed by: cddbd v1.5.2PL0 Copyright (c) Steve Scherf et al.
# Submitted via: CDex 1.51
#
DISCID=6909890a
DTITLE=Jo-El Sonnier - Come On Joe
DYEAR=1990
DGENRE=
TTITLE0=Baby Hold On
TTITLE1=Paid The Price
TTITLE2=So Long Baby Goodbye
TTITLE3=No More One More Time
TTITLE4=Come On Joe
TTITLE5=Say You Love Me
TTITLE6=Rainin' In My Heart
TTITLE7=Louisiana 1927
TTITLE8=Tear-Stained Letter
TTITLE9=I've Slipped Her Mind
EXTD=YEAR: 1990
EXTT0=
EXTT1=
EXTT2=
EXTT3=
EXTT4=
EXTT5=
EXTT6=
EXTT7=
EXTT8=
EXTT9=
PLAYORDER=
